<?xml version="1.0" encoding="iso-8859-1"?>
<!-- Generator: Adobe Illustrator 19.0.0, SVG Export Plug-In . SVG Version: 6.00 Build 0)  -->
<svg xmlns="http://www.w3.org/2000/svg" xmlns:xlink="http://www.w3.org/1999/xlink" version="1.1" id="Layer_1" x="0px" y="0px" viewBox="0 0 502 502" style="enable-background:new 0 0 502 502;" xml:space="preserve" width="512" height="512">
<g>
	<g>
		<ellipse style="fill:#FBB03B;" cx="251" cy="251" rx="241" ry="231.819"/>
		<ellipse style="fill:#39B54A;" cx="247.557" cy="84.595" rx="35.576" ry="20.657"/>
	</g>
	<g>
		<path d="M428.345,79.872C380.954,34.286,317.972,9.181,251,9.181S121.046,34.286,73.655,79.872C26.158,125.56,0,186.334,0,251    s26.158,125.44,73.655,171.128c47.392,45.586,110.374,70.691,177.345,70.691s129.954-25.105,177.345-70.691    C475.842,376.44,502,315.666,502,251S475.842,125.56,428.345,79.872z M251,472.819c-127.374,0-231-99.508-231-221.819    S123.626,29.181,251,29.181S482,128.688,482,251S378.374,472.819,251,472.819z"/>
		<path d="M250.375,426.914c-76.333,0-145.719-46.044-172.657-114.575c-2.02-5.14-7.824-7.672-12.965-5.648    c-5.14,2.021-7.669,7.825-5.648,12.965c14.565,37.054,40.12,68.723,73.903,91.582c34.492,23.34,75.077,35.677,117.367,35.677    c5.523,0,10-4.478,10-10S255.898,426.914,250.375,426.914z"/>
		<path d="M67.551,273.616c-1.092-7.819-1.646-15.814-1.646-23.764c0-5.522-4.477-10-10-10s-10,4.478-10,10    c0,8.871,0.619,17.798,1.838,26.531c0.698,5,4.982,8.617,9.891,8.617c0.46,0,0.927-0.031,1.396-0.097    C64.5,284.14,68.315,279.086,67.551,273.616z"/>
		<path d="M272.585,58.687l2.751-4.045c3.106-4.566,1.921-10.787-2.646-13.893c-4.566-3.106-10.788-1.921-13.892,2.646    l-7.246,10.656c-1.315-0.07-2.644-0.114-3.995-0.114c-25.983,0-45.576,13.18-45.576,30.657c0,17.477,19.593,30.656,45.576,30.656    s45.576-13.18,45.576-30.656C293.133,73.432,285.132,64.03,272.585,58.687z M247.557,95.252c-15.866,0-25.576-6.899-25.576-10.656    c0-2.926,5.893-7.759,15.995-9.753c-1.218,4.067,0.26,8.623,3.958,11.137c1.722,1.171,3.678,1.731,5.614,1.731    c3.199,0,6.343-1.532,8.278-4.378l5.132-7.547c7.749,2.312,12.175,6.275,12.175,8.81    C273.133,88.353,263.423,95.252,247.557,95.252z"/>
	</g>
</g>















</svg>
