<?xml version="1.0" encoding="UTF-8"?>
<svg width="204px" height="166px" viewBox="0 0 204 166" version="1.1" xmlns="http://www.w3.org/2000/svg" xmlns:xlink="http://www.w3.org/1999/xlink">
    <!-- Generator: Sketch 51.3 (57544) - http://www.bohemiancoding.com/sketch -->
    <title>almond (1)</title>
    <desc>Created with Sketch.</desc>
    <defs></defs>
    <g id="Page-1" stroke="none" stroke-width="1" fill="none" fill-rule="evenodd">
        <g id="Galaxy-S8-Copy-2" transform="translate(-57.000000, -407.000000)">
            <g id="almond-(1)" transform="translate(163.500000, 484.000000) rotate(58.000000) translate(-163.500000, -484.000000) translate(97.000000, 371.000000)">
                <path d="M129,122.671978 C129,199.170271 101.241793,221 67,221 C32.7582075,221 5,199.170271 5,122.671978 C5,28.9125081 67,4 67,4 C67.9125962,4.35798019 129,28.5549693 129,122.671978 Z" id="Shape" fill="#F2E5D6" fill-rule="nonzero"></path>
                <path d="M123.16274,63.4101706 C117.89076,49.1664285 110.519441,36.4914446 101.254608,25.7370198 C85.5645494,7.52371012 69.5092157,0.852735651 68.2168386,0.335407386 C67.5105806,0.0524659024 66.7446948,-0.0570028773 65.9876427,0.0281885521 C65.6029331,0.0718877827 65.2213152,0.164141714 64.851623,0.309805816 C64.8414641,0.313778473 64.7995038,0.329227696 64.7897867,0.333200354 C63.8578265,0.711044207 47.9818178,7.33169835 32.0921167,25.7326057 C22.7442464,36.5576555 15.3018152,49.2626551 9.97241613,63.4940378 C3.35505682,81.1648591 -9.54969437e-12,101.242669 -9.54969437e-12,123.169531 C-9.54969437e-12,160.203084 6.23220797,186.549306 19.0526239,203.713392 C30.0987819,218.50183 46.0622447,226 66.5,226 C86.9377553,226 102.90166,218.50183 113.947376,203.713834 C126.767792,186.549747 133,160.203525 133,123.169972 C133.000442,101.153064 129.690879,81.0465621 123.16274,63.4101706 Z M26.2733281,198.327793 C14.8181676,182.992453 9.00997948,157.705606 9.00997948,123.169972 C9.00997948,76.3989945 25.0913728,47.7768812 38.5818284,32.001459 C40.4205727,29.8513685 42.2632921,27.8734266 44.0795104,26.0592464 C34.3310297,44.5837475 24.6753034,75.0659472 24.6753034,123.169972 C24.6753034,159.846869 28.3801765,185.916329 36.0019328,202.866334 C37.3287615,205.816694 38.7805877,208.484554 40.3534362,210.874328 C34.9392331,207.840101 30.2630896,203.669693 26.2733281,198.327793 Z M106.727555,198.327793 C102.73691,203.670576 98.0603252,207.840983 92.6461221,210.875211 C93.4438094,209.663109 94.2119036,208.383913 94.9464296,207.027913 C102.382677,193.293995 106.625526,172.320571 107.916578,142.909223 C108.025674,140.424988 106.099476,138.323011 103.61366,138.213984 C101.11901,138.098777 99.0245286,140.030371 98.9154318,142.514165 C96.7458637,191.93667 85.8397206,216.995751 66.5,216.995751 C44.7252572,216.995751 33.6843995,185.428133 33.6843995,123.169972 C33.6843995,76.2060999 43.3392424,47.4100725 51.439346,31.5234159 C57.7709337,19.1040062 64.1475734,12.4608404 67.1797568,9.74310135 C71.9066944,12.0644575 83.1100931,18.4754436 94.4265637,31.6112557 C107.913486,47.2670569 123.991346,75.8604787 123.991346,123.169972 C123.990462,157.705165 118.182274,182.992012 106.727555,198.327793 Z" id="Shape" fill="#000000" fill-rule="nonzero"></path>
                <path d="M103.505561,119 C101.023241,119 99.0111213,120.951282 99.0111213,123.358547 C99.0111213,124.454701 99.0075959,125.538889 99.0001044,126.611966 C98.9833588,129.019231 100.982699,130.983761 103.464578,131 C103.474713,131 103.484849,131 103.494984,131 C105.962762,131 107.972238,129.067949 107.988983,126.670513 C107.996475,125.578632 108,124.474786 108,123.358547 C108,120.951709 105.98788,119 103.505561,119 Z" id="Shape" fill="#000000" fill-rule="nonzero"></path>
                <path d="M100.086016,35.1212826 C97.1319409,40.2526157 94.1799698,43.9368374 91.2301026,46.1739475 C88.2802355,48.4110577 84.2223229,50.0429677 79.056365,51.0696776 C78.5261023,59.0326112 77.4301178,65.1088782 75.7684114,69.2984788 C74.106705,73.4880793 70.3966624,79.5290756 64.6382837,87.4214675 C70.4395773,92.4821896 74.3751112,96.7936397 76.4448853,100.355818 C78.5146594,103.917996 80.1420574,109.180613 81.3270795,116.143667 C86.1920301,107.456114 90.6151773,102.397463 94.5965209,100.967713 C98.5778645,99.5379633 103.180724,101.355264 108.405101,106.419615 C110.216553,100.804189 112.039683,98.0807295 113.874491,98.2492377 C115.709299,98.417746 118.720841,101.58522 122.909118,107.75166 C123.595702,88.9503665 122.424437,74.729916 119.395322,65.0903083 C116.366207,55.4507006 109.929772,45.4610254 100.086016,35.1212826 Z" id="Path-2" stroke="#000000" stroke-width="5" fill="#8B572A"></path>
                <path d="M55.6583118,121.508139 C52.0076087,117.246403 48.0952548,115.655191 43.92125,116.734504 C42.2661548,117.162478 43.0035421,115.339191 42.3503718,115.427928 C37.3255666,116.110575 27.0725531,114.890349 25.1619601,124.638063 C25.1214292,124.844849 28.276996,129.117673 34.6286607,137.456534 C40.7520725,150.209685 42.9829252,158.681061 41.3212188,162.870661 C39.6595125,167.060262 34.9261996,171.292373 27.1212801,175.566994 C32.7864995,179.63686 36.6539962,183.452883 38.7237703,187.015061 C40.7935444,190.577239 43.1953549,197.484816 45.9292019,207.737793 C45.146941,201.569741 46.7464823,197.77084 50.7278259,196.34109 C54.7091696,194.91134 59.5661168,196.858881 65.2986676,202.183712 C74.1632357,212.017627 79.5129236,217.018839 81.3477313,217.187347 C83.1825389,217.355855 82.9848389,209.959429 80.7546313,194.998069 C79.925737,175.623741 77.9967325,161.116773 74.9676177,151.477165 C71.9385029,141.837557 65.5020676,131.847882 55.6583118,121.508139 Z" id="Path-2" stroke="#000000" stroke-width="5" fill="#8B572A" transform="translate(53.875780, 166.307474) rotate(-174.000000) translate(-53.875780, -166.307474) "></path>
            </g>
        </g>
    </g>
</svg>