<?xml version="1.0" encoding="UTF-8"?>
<svg width="181px" height="205px" viewBox="0 0 181 205" version="1.1" xmlns="http://www.w3.org/2000/svg" xmlns:xlink="http://www.w3.org/1999/xlink"> 
    <g id="Page-1" stroke="none" stroke-width="1" fill="none" fill-rule="evenodd">
        <g id="Galaxy-S8-Copy-2" transform="translate(-102.000000, -239.000000)" fill-rule="nonzero">
            <g id="broccoli-(1)" transform="translate(102.000000, 239.000000)">
                <g id="Group" transform="translate(4.000000, 4.000000)">
                    <path d="M123.351803,134.516965 L86.1948472,158.478892 L64.3043403,197 L14.4226736,168.66123 L40.3983032,122.951224 L40.2237014,78.8732744 C40.7747384,78.6090061 41.3177662,78.3267195 41.8519838,78.0264146 L41.8964352,78.001189 C42.0161736,77.9335203 42.1355116,77.8650508 42.2544491,77.7957805 L42.4346574,77.6892724 L42.4410648,77.6852683 C42.5575995,77.615998 42.6741343,77.5455264 42.7898681,77.4742541 C42.8559444,77.433813 42.9220208,77.3925711 42.9876968,77.3513293 C43.1002269,77.2804573 43.2127569,77.209185 43.3244861,77.1371118 C43.3941667,77.0918659 43.4638472,77.0466199 43.5335278,77.0009736 C43.6328426,76.9357073 43.7317569,76.8696402 43.8302708,76.8027724 C43.9107639,76.7483171 43.9908565,76.6934614 44.0705486,76.6382053 C44.1578495,76.5777439 44.2443495,76.5172825 44.3308495,76.4556199 C44.4193519,76.3931565 44.5070532,76.3294919 44.5947546,76.2658272 C44.6768495,76.2061667 44.758544,76.1461057 44.839838,76.0856443 C44.9343472,76.0151728 45.0288565,75.9443008 45.1221644,75.872628 C45.1902431,75.8209756 45.2575208,75.7685224 45.3251991,75.7160691 C45.4273171,75.6367886 45.5286343,75.5563069 45.6299514,75.4754248 L45.8105602,75.3292764 C45.9226898,75.2379837 46.034419,75.1454898 46.1453472,75.0521951 L46.2799028,74.9380793 C46.3956366,74.8395793 46.510169,74.7402785 46.6239005,74.6397764 L46.758456,74.5204553 C46.8797963,74.4123455 47.0003356,74.3026341 47.1200741,74.192122 L47.2105787,74.1080366 C47.3403287,73.9871138 47.4688773,73.8645894 47.596625,73.7408638 L47.6631019,73.6767988 C47.796456,73.5466667 47.9290093,73.4145325 48.0603611,73.2815976 L48.1100185,73.2311463 C48.2465764,73.0918049 48.3823333,72.9504614 48.516088,72.8075163 L48.5453218,72.7762846 C48.683081,72.628935 48.8196389,72.4795833 48.9549954,72.3290305 L48.9770208,72.3046057 C49.1159815,72.149248 49.2537407,71.9918882 49.3894977,71.8329268 L49.3915,71.8305244 L49.3947037,71.8269207 C49.5336644,71.6643557 49.6706227,71.4997886 49.8063796,71.3336199 L49.807581,71.3320183 L49.8095833,71.3292154 C49.943338,71.1650488 50.0750903,70.9992805 50.2052407,70.8315102 L50.2124491,70.8223008 L50.21325,70.8215 L50.2212593,70.8110894 C50.3522106,70.6425183 50.4811597,70.4723455 50.6089074,70.2997703 C52.1170509,72.1280264 53.9772014,73.7176402 56.160125,74.9576992 L64.3760231,113.160083 L80.4145648,84.9370305 L80.5102755,85.0947907 L80.5395093,85.1420386 C80.596375,85.2345325 80.6536412,85.326626 80.7117083,85.4183191 L80.7413426,85.4647663 C80.796206,85.5508537 80.8514699,85.6361402 80.9071343,85.7214268 L80.9736111,85.8223293 C81.0204653,85.8928008 81.066919,85.9632724 81.1145741,86.0329431 L81.1834537,86.1342459 C81.2315093,86.2043171 81.2795648,86.2739878 81.3280208,86.3436585 L81.3892917,86.4313476 C81.4425532,86.5070244 81.4966157,86.5823008 81.5506782,86.6575772 L81.6035394,86.7308516 C81.6568009,86.804126 81.7108634,86.877 81.7653264,86.9502744 L81.8374097,87.046372 C81.8858657,87.110437 81.9347222,87.174502 81.9835787,87.2385671 L82.0712801,87.3522825 C82.1157315,87.4095407 82.1609838,87.4667988 82.2062361,87.5236565 L82.3083542,87.6513862 L82.4324977,87.8043415 L82.5474306,87.9440833 L82.6391366,88.0541951 L82.7901111,88.2319756 L82.8878241,88.3456911 C82.937081,88.4025488 82.986338,88.4590061 83.0363958,88.515063 L83.136912,88.6279776 C83.1893727,88.6868374 83.2422338,88.7452967 83.2958958,88.8037561 L83.3904051,88.9066606 C83.4452685,88.9659207 83.5001319,89.0251809 83.5553958,89.0840407 L83.6495046,89.1837419 C83.7063704,89.2434024 83.7636366,89.303063 83.8209028,89.3619228 L83.9086042,89.4516138 C83.9670718,89.5112744 84.0263403,89.570935 84.0856088,89.6301951 L84.1737106,89.7170833 C84.2361829,89.7791463 84.299456,89.8408089 84.3627292,89.9020711 L84.4376157,89.9741443 C84.5024907,90.0362073 84.5677662,90.0978699 84.6330417,90.1595325 L84.705125,90.2268008 C84.7756065,90.2920671 84.846088,90.3573333 84.9173704,90.4217988 L84.9702315,90.4694472 C85.0435162,90.5355142 85.1172014,90.6011809 85.1916875,90.6664472 L85.2501551,90.7176992 C85.3222384,90.780563 85.3943218,90.8430264 85.4668056,90.9050894 L85.537287,90.9651504 C85.6093704,91.0264126 85.6822546,91.0872744 85.7555394,91.1477358 L85.8268218,91.2069959 C85.9085162,91.2738638 85.9902106,91.3403313 86.072706,91.405998 L86.1135532,91.4388313 C86.1968495,91.5048984 86.2801458,91.570565 86.3646435,91.6358313 L86.4251134,91.6826789 C86.5072083,91.7459431 86.5901042,91.8088069 86.6734005,91.8712703 L86.7270625,91.9117114 C86.8127616,91.9757764 86.8992616,92.0390407 86.9857616,92.1019045 L87.0430278,92.1431463 C87.1291273,92.2052093 87.2156273,92.266872 87.3029282,92.3281341 L87.3569907,92.3661728 C87.4474954,92.429437 87.5388009,92.4919004 87.6305069,92.5543638 L87.6669491,92.579189 C87.7598565,92.6416524 87.8527639,92.7041159 87.9464722,92.765378 L88.0057407,92.8042175 C88.095044,92.8622764 88.1843472,92.9203354 88.2748519,92.9775935 L88.3357222,93.0156321 C88.4318333,93.0760935 88.5287454,93.1365549 88.6264583,93.1962154 L88.6328657,93.2002195 C88.8539213,93.3351565 89.0781806,93.4672907 89.3048426,93.5958211 C89.4021551,93.6510772 89.4994676,93.7055325 89.5971806,93.759187 L89.7289329,93.8304593 C89.7874005,93.8620915 89.8458681,93.894124 89.9047361,93.9257561 L90.0056528,93.9786098 C90.0713287,94.0130447 90.1374051,94.0478801 90.2034815,94.0819146 L90.3344329,94.1483821 C90.3896968,94.1764106 90.4449606,94.2048394 90.500625,94.2324675 L90.6560046,94.3089451 L90.8053773,94.3818191 L90.9439375,94.4478862 L91.111331,94.5267663 L91.2562986,94.5932337 L91.4136806,94.6645061 L91.5682593,94.7329756 L91.7180324,94.7982419 L91.8762153,94.8655102 L92.0235856,94.9275732 C92.0760463,94.9495955 92.1289074,94.9708171 92.1813681,94.992439 L92.3395509,95.0565041 L92.478912,95.1113598 L92.6547153,95.1794289 L92.7960787,95.2330833 L92.9522593,95.2911423 L93.1076389,95.348 L93.2650208,95.4040569 L93.4264074,95.4605142 L93.5729769,95.510565 L93.727956,95.5626179 L93.9017569,95.6190752 L94.0435208,95.6643211 L94.2025046,95.7139715 L94.3598866,95.7620203 L94.5240764,95.8104695 L94.6686435,95.8529126 L94.8492523,95.9037642 L94.9846088,95.9414024 L95.2004583,95.9986606 L95.2937662,96.0234858 C95.376662,96.0451077 95.4599583,96.0655285 95.5428542,96.0859492 L95.6129352,96.1035671 C95.6734051,96.1183821 95.733875,96.1323963 95.7943449,96.146811 L95.9373102,96.1804451 C96.0406296,96.2040691 96.1435486,96.2272927 96.2468681,96.249315 C96.3385741,96.268935 96.4298796,96.2881545 96.5215856,96.3069736 L96.5588287,96.3149817 C96.6349167,96.3301972 96.7110046,96.3450122 96.7870926,96.3594268 L96.8751944,96.3766443 C96.9388681,96.3886565 97.0025417,96.3998679 97.0662153,96.4114797 L97.1995694,96.4351037 L97.3629583,96.4627317 L97.5163356,96.4883577 C97.5760046,96.4979675 97.6364745,96.5071768 97.696544,96.5163862 L97.8335023,96.5372073 L98.0040995,96.5616321 L98.1530718,96.5820528 L98.3372847,96.6056768 L98.4654329,96.6216931 L98.658456,96.6441159 L98.7809977,96.6577297 L98.9820301,96.6781504 L99.0965625,96.6893618 L99.2947917,96.7073801 L99.4209375,96.7177907 L99.6063519,96.7318049 L99.7493171,96.741815 L99.918713,96.752626 L100.061678,96.7606341 L100.249095,96.7702439 L100.376843,96.7758496 L100.558653,96.7826565 L100.695611,96.7866606 L100.892639,96.7914654 L100.987549,96.7930671 C101.061634,96.7942683 101.13572,96.7954695 101.209806,96.7958699 L101.302313,96.7962703 L101.529775,96.7962703 L101.601859,96.7954695 C101.683553,96.7946687 101.765248,96.7938679 101.846942,96.7926667 L101.921028,96.7906646 C101.998718,96.789063 102.076407,96.7874614 102.154097,96.7846585 L102.265826,96.7806545 C102.335106,96.778252 102.404387,96.7758496 102.473667,96.7726463 L102.535338,96.7694431 C102.919782,96.7514248 103.303025,96.724998 103.685468,96.6889614 L103.721509,96.6857581 C103.801602,96.6781504 103.881294,96.6697419 103.960986,96.6613333 L104.034671,96.6537256 C104.101549,96.6465183 104.168025,96.6385102 104.234903,96.6309024 L104.355843,96.6168882 C104.423921,96.6084797 104.492,96.5996707 104.560079,96.5908618 L104.660595,96.5776484 C104.735081,96.5676382 104.809968,96.5568272 104.884454,96.5464167 L104.969352,96.5344045 C105.044238,96.5235935 105.119125,96.5119817 105.194412,96.4999695 L105.283315,96.4859553 L105.489153,96.4519207 L105.600481,96.4331016 L105.795907,96.3982663 L105.91084,96.3770447 C105.975715,96.3650325 106.04059,96.3522195 106.105465,96.3394065 L106.221199,96.3165833 L106.417025,96.2765427 L106.520345,96.2545203 C106.593229,96.2393049 106.665713,96.2232886 106.738197,96.2072724 L106.81869,96.1892541 C106.893977,96.172437 106.969264,96.1548191 107.04415,96.1372012 L107.122641,96.1183821 C107.196727,96.1007642 107.270412,96.0827459 107.344097,96.0643272 L107.440609,96.0399024 L107.639639,95.9886504 L107.753771,95.9578191 L107.945993,95.9057663 L108.048111,95.8773374 C108.11659,95.8581179 108.185069,95.8388984 108.253148,95.818878 L108.330037,95.7960549 C108.408528,95.7728313 108.487019,95.7500081 108.565109,95.7259837 L108.593141,95.7171748 C108.683245,95.6895467 108.772949,95.6619187 108.862653,95.6330894 L108.865856,95.6322886 L83.4056227,140.434974 L118.606317,123.21349 C119.154951,127.300839 120.779229,131.215213 123.355007,134.510559 L123.351803,134.516965 Z M41.8960347,78.0015894 C42.0157731,77.9339207 42.1351111,77.8654512 42.2540486,77.7961809 L41.8960347,78.0015894 Z M96.2444653,96.2525183 C96.3361713,96.2721382 96.4274769,96.2913577 96.5191829,96.3101768 L96.2444653,96.2525183 Z" id="Shape" fill="#00C56E"></path>
                    <g fill="#87DD60" id="Shape">
                        <path d="M41.9336782,29.192437 C42.2011875,29.3441911 42.4634907,29.5011504 42.7241921,29.6605122 C43.1170463,27.2772927 43.9299861,24.9221016 45.1930463,22.6994451 C50.9264745,12.610002 63.7541042,9.07841667 73.8449699,14.8110366 C76.2962037,16.2036504 78.3589884,18.0158902 79.9972824,20.1040102 C80.3224583,19.4401362 80.6672569,18.7810671 81.0372847,18.1296057 C90.8057778,0.940154472 112.661444,-5.07715447 129.852919,4.68996138 C146.576252,14.1904065 152.72416,35.126061 144.056539,52.0816748 C144.734123,52.3991972 145.404498,52.744748 146.066063,53.1203293 C159.695019,60.8629898 164.465734,78.1865772 156.721581,91.8136118 C155.205428,94.4811199 153.32085,96.8074817 151.170764,98.7690732 C151.883988,99.0849939 152.588403,99.4385528 153.281204,99.8321524 C164.492965,106.201819 168.417903,120.452687 162.047338,131.663268 C155.676773,142.873449 141.423896,146.797433 130.212134,140.428167 C119.000373,134.0585 115.075836,119.807632 121.446,108.597451 C122.183252,107.299734 123.027428,106.101317 123.959306,105.003402 C121.932162,104.399189 119.941461,103.557535 118.023644,102.468028 C114.721826,100.592524 111.941813,98.1540488 109.732058,95.3427947 C103.230141,97.6839715 95.7831319,97.2783598 89.3036412,93.5970224 C81.9975949,89.4464085 77.6401574,82.1085589 76.9829977,74.3246565 C70.9103773,78.2778699 62.8955116,78.7855854 56.1605255,74.9597012 C53.9772014,73.7192419 52.1178519,72.1292276 50.6093079,70.3017724 C42.2860856,81.5487907 26.6828472,85.0643598 14.2104282,77.9787663 C0.736451389,70.3241951 -3.97980093,53.1980081 3.67584954,39.7255305 C11.3310995,26.2534533 28.4597014,21.5378659 41.9336782,29.192437 Z"></path>
                        <path d="M56.1597245,74.9601016 L64.3756227,113.162486 L80.4137639,84.9398333 C78.4703171,81.707752 77.2985625,78.0680569 76.9821968,74.3250569 C70.9095764,78.2782703 62.8943102,78.7863862 56.1597245,74.9601016 Z"></path>
                        <path d="M108.862252,95.6378943 L83.4020185,140.440579 L118.601512,123.219096 C117.946354,118.33774 118.824169,113.210134 121.446,108.597451 C122.183252,107.299734 123.027428,106.101317 123.959306,105.003402 C121.932162,104.399189 119.941461,103.557535 118.023644,102.468028 C114.721826,100.592524 111.941813,98.1540488 109.732058,95.3427947 C109.443725,95.4469004 109.153789,95.545 108.862252,95.6378943 Z"></path>
                    </g>
                    <path d="M123.351803,134.516965 L103.31544,147.438083 C104.390683,152.72385 107.65806,157.535134 112.717509,160.409252 C122.007449,165.68661 133.817102,162.435709 139.095204,153.147079 C140.832812,150.089175 141.645752,146.758994 141.623727,143.478063 C137.747646,143.461246 133.821907,142.479049 130.211734,140.427766 C127.476171,138.874589 125.175111,136.850535 123.351803,134.516965 Z" id="Shape" fill="#C8FA8B"></path>
                    <path d="M153.280803,99.8329533 C158.672637,102.896463 162.379322,107.782224 164.06447,113.276602 C166.675088,111.681382 168.929694,109.422289 170.548366,106.574197 C175.644657,97.6058923 172.505028,86.2051179 163.535458,81.1095447 C162.50787,80.525752 161.447845,80.0512703 160.370199,79.6800935 C160.097484,83.8198963 158.908509,87.9649045 156.721181,91.8144126 C155.205028,94.4819207 153.320449,96.8082825 151.170363,98.769874 C151.883988,99.0853943 152.588403,99.4393537 153.280803,99.8329533 Z" id="Shape" fill="#87DD60"></path>
                    <g transform="translate(20.423611, 9.209350)" fill="#C8FA8B" id="Shape">
                        <path d="M22.300581,20.4511626 C22.6934352,18.0679431 23.506375,15.712752 24.7694352,13.4900955 C26.5743218,10.3140711 29.0816204,7.78830691 31.9857778,5.99688821 C30.7531528,4.68235366 29.3046782,3.52798171 27.6559722,2.59103049 C18.846588,-2.41365041 7.6476412,0.669479675 2.64265509,9.47762195 C1.23142361,11.9609431 0.463335648,14.6336565 0.28512963,17.3035671 C7.18590741,15.4268618 14.8015116,16.1712175 21.5108681,19.9830874 C21.7775764,20.1348415 22.0398796,20.2918008 22.300581,20.4511626 Z"></path>
                        <path d="M125.642451,43.9113801 C135.194694,49.3380894 140.395507,59.4711768 139.985032,69.7392012 C143.362937,67.5401687 146.27991,64.5243069 148.40837,60.7785041 C155.521794,48.2605955 151.139528,32.3472398 138.619454,25.2344187 C135.008479,23.1827358 131.114377,22.0892256 127.231088,21.8698028 C128.102495,28.3663984 127.202255,35.1472825 124.320924,41.4492805 C124.102671,41.9281667 123.873606,42.4030488 123.632528,42.8719248 C124.310111,43.190248 124.980486,43.5357988 125.642451,43.9113801 Z"></path>
                    </g>
                    <path d="M40.2237014,78.8736748 L40.2597431,87.9685081 L40.3630625,114.07261 C36.3556296,115.873238 31.8808565,115.979746 27.4609468,113.468396 C23.0406366,110.957047 20.1264676,105.801413 20.246206,100.721856 C18.0997245,100.405935 15.9752685,99.6952134 13.9753565,98.5592602 C5.32615741,93.6454715 2.29865741,82.6515102 7.21313889,74.0039309 C7.40616204,73.6643862 7.60959722,73.3348516 7.8206412,73.0129248 C9.65476157,74.9228638 11.7904306,76.6041707 14.2100278,77.9791667 C22.5180324,82.6987581 32.2144421,82.7131728 40.2237014,78.8736748 Z" id="Shape" fill="#87DD60"></path>
                </g>
                <path d="M43.9976155,181.575104 L43.8949611,181.516744 C41.9974347,180.435683 39.5886105,181.105838 38.5138982,183.013871 C37.4387911,184.921508 38.1052549,187.344068 40.0027813,188.424731 L40.1054357,188.483489 C40.7201774,188.833652 41.3886153,189 42.0479722,189 C43.4235407,189 44.7600216,188.275852 45.4868935,186.986361 C46.5608161,185.078328 45.8943524,182.655768 43.9976155,181.575104 Z" id="Shape" fill="#000000"></path>
                <path d="M171.155119,82.6534918 C173.175776,80.6827894 174.925677,78.4290137 176.325517,75.9662362 C180.294737,68.9826946 181.306467,60.8716646 179.173262,53.1273886 C177.040057,45.3831126 172.018254,38.9328858 165.031867,34.9650554 L165.031867,34.9654558 C161.91577,33.195347 158.593401,32.0174099 155.120835,31.443656 C152.815804,20.735719 146.107783,11.0471661 135.837078,5.21353456 C126.590919,-0.0383353708 115.851598,-1.37682749 105.599317,1.44589745 C96.3231191,3.99916226 88.4491653,9.6814477 83.1417864,17.5862787 C82.1028202,16.752674 80.9941624,16.0007481 79.8198182,15.3337041 C74.0085768,12.0329177 67.2593019,11.192106 60.8156288,12.9654179 C59.5035035,13.3265665 58.2390408,13.7922161 57.0250444,14.3459506 C56.0922178,13.5964271 55.0993122,12.9185727 54.0499323,12.3227975 L54.0503329,12.3227975 C43.3330403,6.23532095 29.6602614,9.99895421 23.571455,20.7124966 C22.3582597,22.8473575 21.5231616,25.1147464 21.0645585,27.4790287 C13.914757,30.0759357 7.97734963,35.0651521 4.17755313,41.7496049 C-2.46518168,53.4368874 -0.925957688,67.5709318 6.95039925,77.5149313 C2.08440075,87.8148744 5.91663992,100.320947 15.9834772,106.038867 C17.4189648,106.854054 18.9237435,107.500678 20.4817922,107.973134 C21.4070088,113.312689 24.7634223,118.273878 29.4708123,120.947259 C32.3221616,122.566822 35.3745754,123.380808 38.4518218,123.380808 C39.0906618,123.380808 39.7303029,123.345174 40.3695434,123.275106 L40.3799571,125.898839 L14.9280894,170.677667 C14.7230198,171.038015 14.5804323,171.417181 14.4963217,171.801952 C14.440248,172.0586 14.4102085,172.31765 14.4054021,172.575899 C14.3781663,173.99607 15.109528,175.385812 16.4316666,176.136536 L28.4338487,182.953918 C29.0586703,183.30866 29.7383641,183.477223 30.4088457,183.477223 C31.8026785,183.477223 33.1568592,182.74892 33.8950298,181.450867 C34.9880671,179.528211 34.3147818,177.084652 32.3914527,175.991997 L23.8706484,171.152525 L47.872209,128.926162 C48.217463,128.318375 48.3981005,127.631312 48.3952968,126.932237 L48.2302798,85.2732208 C48.2422956,85.2660139 48.2543114,85.2592073 48.2659267,85.2524007 C48.2743378,85.2475961 48.2823483,85.2427914 48.2903588,85.2379868 L48.2931625,85.2363853 C48.4637869,85.136689 48.6332097,85.0345904 48.8022319,84.9312907 C48.825863,84.9168768 48.8510962,84.9020625 48.8739262,84.888049 L49.1114385,84.7407067 C49.2372039,84.6614302 49.3629693,84.5817533 49.4971457,84.4952698 L49.63733,84.4039817 C49.7927344,84.3022835 49.9473377,84.1997846 50.1011399,84.0952837 C50.185651,84.0380284 50.2689606,83.9807731 50.3386522,83.9323264 C50.440386,83.8622587 50.5417192,83.7909899 50.6422514,83.7197211 L50.8749574,83.550758 C51.0511892,83.4234351 51.2270204,83.2953114 51.400849,83.1639846 C51.4493127,83.1275495 51.4993785,83.0899131 51.5462401,83.0546791 L51.777344,82.8765071 C51.8942978,82.7856194 52.0108511,82.6935305 52.1430249,82.5874281 L52.2667876,82.4873314 C52.3897493,82.3876352 52.5115094,82.2871382 52.6332695,82.18544 C52.6665132,82.1578133 52.6953511,82.1345909 52.730197,82.1053627 L52.8691797,81.9876491 C53.0025551,81.8743397 53.1347289,81.7598291 53.2725101,81.6381116 L53.4187023,81.5087868 C53.4527471,81.4783574 53.488394,81.4455257 53.5224387,81.414696 C53.6113556,81.3346187 53.7006731,81.254141 53.788789,81.1728625 C53.8060116,81.156847 53.8220327,81.1428335 53.8392553,81.126818 L53.9353817,81.0375319 C54.0835766,80.8993985 54.2301693,80.7596636 54.3799663,80.6151241 L54.4532627,80.5442557 C54.5509912,80.4489637 54.6479187,80.3520701 54.7448461,80.2551766 C54.7768882,80.2231457 54.810933,80.1931167 54.8429751,80.1606854 L54.8433757,80.1610858 C55.1141317,80.3816987 55.3900946,80.5959055 55.6708638,80.8049073 C55.7653881,80.8753753 55.862716,80.9418395 55.9584419,81.010706 C56.147891,81.1476381 56.3373401,81.2841699 56.5307945,81.4158971 C56.553224,81.4311118 56.5744519,81.4475276 56.5964809,81.4623419 L64.1355944,116.509775 L58.070419,127.180877 C56.9773818,129.103533 57.6510676,131.547092 59.5739962,132.639346 C60.1984172,132.994089 60.878111,133.162651 61.5489932,133.162651 C62.942826,133.162651 64.2974072,132.434348 65.0351773,131.136295 L84.930138,96.1345058 L85.6743165,96.8628089 C85.711165,96.8980429 85.7468119,96.9348785 85.7840608,96.9701125 L85.9763136,97.1582942 C86.0592227,97.2355688 86.1429327,97.312443 86.2206349,97.382911 L86.2875229,97.4437697 C86.3736361,97.5214447 86.4597493,97.5979186 86.5406557,97.6691874 L86.6119495,97.732048 C86.6972616,97.8065199 86.7825738,97.880191 86.8626792,97.9486571 L87.2828316,98.3005969 C87.3773559,98.3782719 87.4722807,98.4551461 87.5700093,98.5332215 L87.6164703,98.5704574 C87.7125967,98.6469312 87.8095242,98.7230047 87.9116585,98.8026816 L88.3302089,99.1209889 C88.429139,99.19466 88.5288701,99.2679307 88.632206,99.3432034 L88.7010966,99.3932517 C88.8004272,99.4649209 88.9009594,99.5361897 88.9914784,99.5998511 L89.0683795,99.6539033 C89.1713149,99.7255725 89.2754518,99.7968413 89.3719787,99.8625047 L89.4256493,99.8989399 C89.5309878,99.9698083 89.6367269,100.040276 89.7604896,100.121955 L89.8197676,100.160793 C89.924305,100.228858 90.029243,100.296524 90.1522047,100.374199 L90.2006684,100.404628 C90.3112138,100.474295 90.4229607,100.543562 90.509875,100.596814 C90.5222913,100.604821 90.5355087,100.612829 90.547925,100.620436 C90.8046626,100.776587 91.0638034,100.929134 91.3253473,101.078078 C91.4402985,101.143742 91.5560507,101.208604 91.6898266,101.281475 L91.8924931,101.382372 C92.5012936,101.710288 93.1169031,102.021789 93.7433268,102.302861 L93.7869842,102.324481 L93.8190263,102.336893 C94.6569281,102.710054 95.5096494,103.041173 96.3731849,103.329852 L96.4484839,103.35908 C96.4617013,103.363484 96.4749187,103.367889 96.4885366,103.372293 L97.5419217,103.697807 C97.5571417,103.702211 97.5723618,103.706616 97.5875818,103.71102 L97.9068015,103.800306 C97.9232231,103.80471 97.9396447,103.809115 97.9560663,103.813519 L98.2881029,103.901604 C98.387834,103.927629 98.4887668,103.952853 98.5660684,103.971672 L99.0358862,104.08418 C99.1532405,104.111406 99.2701943,104.137432 99.3911534,104.163457 C99.3951586,104.164257 99.3987634,104.165058 99.4023681,104.165859 C99.505704,104.188281 99.6094404,104.209901 99.7127763,104.231122 C99.7320015,104.235126 99.7608395,104.241132 99.7696511,104.242733 L100.319574,104.348035 C100.323179,104.348435 100.362431,104.355642 100.366436,104.356443 L100.679648,104.400085 C101.201534,104.48777 101.725423,104.56024 102.251314,104.618696 L102.594165,104.666342 L102.758381,104.67475 C103.538206,104.747621 104.320836,104.784456 105.104266,104.792864 L105.323754,104.804075 L83.9204102,142.460827 C83.052469,143.987901 83.2811697,145.901749 84.4847523,147.180984 C85.688335,148.46102 87.5860303,148.806954 89.1629038,148.035008 L119.882098,133.009303 C120.394772,134.503946 121.036416,135.952945 121.798217,137.33628 L105.148324,148.071043 C105.146722,148.071844 105.14552,148.073045 105.143918,148.074246 L88.1671945,159.019612 L68.4540729,169.480911 C66.5003038,170.517512 65.7573269,172.941452 66.7942904,174.894537 C67.5136363,176.249445 68.9006602,177.021791 70.3349462,177.021791 C70.9681788,177.021791 71.6110241,176.871246 72.209411,176.553739 L79.9107378,172.466994 L66.7978952,195.536865 L59.0645262,191.144625 C57.1403961,190.051569 54.6963824,190.72502 53.6037456,192.647676 C52.5107084,194.570332 53.1839937,197.014291 55.1073227,198.106545 L66.32247,204.477095 C66.9312705,204.822629 67.6133675,205 68.3014723,205 C68.6575405,205 69.0152108,204.952354 69.36447,204.856261 C70.3886167,204.574389 71.2589612,203.897336 71.7836511,202.974044 L93.1926026,165.308884 L105.182368,157.578221 C107.218646,161.87597 110.531402,165.495464 114.743741,167.888174 C118.376919,169.952166 122.334122,170.931912 126.24166,170.931912 C134.375556,170.931912 142.289162,166.683811 146.586412,159.123713 C147.981046,156.670144 148.915475,153.991559 149.35285,151.229292 C157.544822,150.132233 165.153627,145.362428 169.542198,137.641375 C172.797278,131.915047 173.856671,125.355515 172.613837,118.958539 C174.795906,117.186428 176.647541,115.01313 178.04578,112.553156 C183.902681,102.2404 180.766157,89.2402504 171.155119,82.6534918 Z M161.074263,41.9265758 C166.200203,44.8381865 169.885049,49.5707552 171.450307,55.2526402 C173.015565,60.9345253 172.27379,66.8854701 169.360759,72.0100171 C168.842878,72.9208964 168.270125,73.7845301 167.644502,74.5989163 C166.982031,71.6736924 165.912225,68.8781937 164.491156,66.275281 C164.469528,66.2356427 164.4487,66.1952037 164.426671,66.1555654 C164.235219,65.8084303 164.036158,65.4660999 163.831889,65.1261717 C163.757792,65.0020519 163.684095,64.8779321 163.608395,64.7554138 C163.441376,64.4855533 163.269149,64.2188959 163.094119,63.95384 C162.971157,63.7668595 162.846593,63.5806797 162.719627,63.3965019 C162.574636,63.1870998 162.427242,62.9792992 162.277045,62.7731001 C162.109224,62.5416767 161.9386,62.3126556 161.764771,62.0860369 C161.639006,61.9222788 161.512039,61.7593215 161.382669,61.5979657 C161.175596,61.3385153 160.963718,61.0826683 160.748234,60.829624 C160.637288,60.699098 160.526342,60.5689724 160.412993,60.4400479 C160.172277,60.1657831 159.925152,59.8967234 159.674823,59.6308668 C159.57349,59.5231628 159.473358,59.4150584 159.370823,59.308956 C159.10247,59.0318885 158.827709,58.7608269 158.549343,58.4929683 C158.452816,58.4000786 158.357891,58.3059878 158.260163,58.2142993 C157.969781,57.9420364 157.672189,57.6769806 157.371394,57.4151278 C157.276069,57.3318474 157.182746,57.2469654 157.086219,57.1648862 C156.775811,56.9010315 156.457392,56.6447841 156.13617,56.3921402 C156.041645,56.3176683 155.949925,56.2407941 155.854599,56.1675234 C155.515353,55.9064714 155.167696,55.6542279 154.816835,55.4059882 C154.733926,55.3471314 154.65382,55.2850715 154.57011,55.2270155 C154.133937,54.9243233 153.690153,54.6300392 153.237158,54.3469659 C153.270001,54.2644863 153.296836,54.1808055 153.329279,54.0979255 C153.342096,54.0646934 153.35331,54.0310609 153.366127,53.9978289 C155.145267,49.3677592 156.001593,44.5691268 156.005197,39.8233454 C157.761106,40.3050104 159.454934,41.006888 161.074263,41.9265758 Z M49.9497408,19.2042406 C49.336935,19.8060215 48.7545693,20.4410346 48.2038451,21.1072777 C48.1874235,21.1268967 48.1714024,21.146916 48.1549808,21.1665349 C47.6939746,21.7278768 47.2549974,22.3096384 46.8408528,22.9142221 C46.7158885,23.0955972 46.5933273,23.2785738 46.4731693,23.4635524 C46.4014751,23.574059 46.3301813,23.6841653 46.2600892,23.7962736 C46.0682369,24.1017685 45.8807904,24.4100661 45.7021555,24.7243695 C45.1177871,25.7525621 44.6095188,26.8123852 44.1789526,27.899835 C43.7259569,27.7140556 43.2693565,27.541489 42.810353,27.3773306 C42.6837865,27.3320869 42.5564191,27.2916478 42.4294521,27.2480057 C42.0942113,27.1326944 41.7577689,27.0213869 41.4197244,26.9172865 C41.2691263,26.871242 41.1181278,26.8275999 40.9671292,26.7839577 C40.6451058,26.6902673 40.3218808,26.6013815 39.9970536,26.5177007 C39.8456546,26.4788632 39.694656,26.4404261 39.5428564,26.4039909 C39.2012072,26.3215113 38.8587568,26.2462386 38.515105,26.1749698 C38.3849338,26.148144 38.2551632,26.1193161 38.1245915,26.0940918 C37.69763,26.0116122 37.2690665,25.937941 36.8393014,25.8730784 C36.7940419,25.8662718 36.7487824,25.8574633 36.7035228,25.8506568 C36.2068698,25.7777864 35.7086146,25.7169277 35.2091578,25.6680805 C35.1747125,25.6648774 35.1398667,25.6628755 35.1050209,25.6596724 C34.6592347,25.6172314 34.2126475,25.5852005 33.7652592,25.5615777 C33.6438996,25.5551715 33.52254,25.5523688 33.4011805,25.5471638 C33.0359001,25.5323495 32.6702193,25.5227402 32.3041379,25.5203379 C32.2388521,25.5199375 32.1739667,25.5155333 32.1086809,25.5155333 C31.9877218,25.5155333 31.8663623,25.5199375 31.7454032,25.5215391 C31.5655667,25.523541 31.3861308,25.5251425 31.2058938,25.5303476 C30.9503578,25.5375545 30.6948218,25.5499665 30.4392857,25.5635796 C30.3115177,25.5703862 30.1841503,25.5727885 30.0563822,25.5811966 C30.2041766,25.272899 30.3631857,24.9686053 30.53381,24.6683154 C34.416115,17.8409245 43.0951274,15.4121799 49.9497408,19.2042406 Z M33.4284163,113.984538 C30.2870856,112.200415 28.1530795,108.429575 28.2379912,104.813684 C28.2856538,102.792533 26.8185247,101.053254 24.8170929,100.75857 C23.1028388,100.506326 21.4622815,99.9401797 19.9410812,99.0761456 C14.37336,95.9134925 11.7991751,89.4856873 13.2554901,83.5555627 C13.285129,83.5767831 13.3163701,83.5960017 13.3456086,83.6172222 C13.6712368,83.8506475 14.0068781,84.0744636 14.3433205,84.2974789 C14.4807012,84.3883666 14.6140765,84.4844594 14.7526588,84.5733452 C15.2308876,84.8796409 15.7187291,85.1759269 16.2181858,85.4594005 C16.6331315,85.6952282 17.0524829,85.9170423 17.4738369,86.1320499 C17.5667591,86.1792955 17.6592808,86.2261407 17.7526035,86.2725856 C18.6341627,86.7126103 19.5277377,87.1081922 20.4317264,87.4605323 C20.4613654,87.4721436 20.4910043,87.4833544 20.5210438,87.4949656 C24.2595598,88.9391598 28.1642943,89.6446408 32.0409919,89.6442404 C32.177171,89.6442404 32.312549,89.6358323 32.448728,89.6342307 C32.5849071,89.6326292 32.7210862,89.6274242 32.8572652,89.6242211 C33.2305561,89.6146118 33.603847,89.6013991 33.9759362,89.5789774 C34.1357464,89.5693681 34.295156,89.555755 34.4549661,89.5437434 C34.8050264,89.5173179 35.1546862,89.4884901 35.5035449,89.4508537 C35.6833814,89.4316352 35.8628174,89.4072116 36.0422533,89.3847899 C36.3726878,89.3435501 36.7027218,89.3007088 37.0319547,89.2490589 C37.223807,89.2190299 37.4144577,89.1833955 37.6059094,89.1497631 C37.9243281,89.0937089 38.2423463,89.0372545 38.5591629,88.9715911 C38.7522168,88.9315524 38.944069,88.8859083 39.1367224,88.8426666 C39.4531384,88.7709974 39.769154,88.6989278 40.0835674,88.6180498 C40.1332327,88.6052374 40.1832985,88.5956281 40.2329638,88.5824154 L40.3383024,115.191302 C37.9928182,115.66496 35.6765725,115.26177 33.4284163,113.984538 Z M70.0782086,106.05208 L65.5855009,85.1659172 C69.7285488,85.9534775 74.0149852,85.6363714 78.0186498,84.2214054 C78.4864649,85.8341623 79.1000718,87.3920663 79.8362398,88.8847072 L70.0782086,106.05208 Z M114.082071,105.597641 C115.886844,107.260446 117.880666,108.716252 120.047916,109.946639 C120.62908,110.276558 121.219857,110.588459 121.818644,110.881942 C119.376633,115.289397 118.290805,120.092834 118.41577,124.807786 L97.2895899,135.141762 L114.082071,105.597641 Z M139.620052,155.164291 C135.439755,162.51859 126.053012,165.100683 118.698942,160.92305 C115.620494,159.174562 113.2674,156.431514 111.993725,153.182377 L126.662614,143.724447 C126.690651,143.751673 126.721491,143.776497 126.749528,143.804124 C127.097185,144.139648 127.456057,144.465563 127.823741,144.78427 C127.981548,144.920802 128.144562,145.050928 128.305574,145.183856 C128.554702,145.390055 128.806633,145.593451 129.064572,145.792043 C129.233194,145.921368 129.403418,146.048691 129.575244,146.174012 C129.854411,146.378609 130.139586,146.577201 130.428365,146.772189 C130.578162,146.873087 130.725957,146.976386 130.877756,147.074481 C131.32154,147.361558 131.773334,147.640628 132.238746,147.905283 C132.559167,148.087459 132.882793,148.259625 133.207219,148.427387 C133.287725,148.469027 133.369032,148.509066 133.449538,148.549505 C133.720294,148.686037 133.992252,148.817764 134.265411,148.944286 C134.32549,148.971913 134.385168,149.00034 134.445648,149.027967 C135.153379,149.349878 135.86912,149.638556 136.590869,149.895605 C136.596476,149.897606 136.602084,149.899608 136.607691,149.90161 C136.980581,150.034138 137.354673,150.157858 137.730367,150.273169 C137.731569,150.273569 137.73277,150.27397 137.733571,150.27437 C138.475347,150.50179 139.221928,150.696378 139.972515,150.858134 C140.033395,150.871346 140.094276,150.883358 140.155156,150.89617 C140.448341,150.95743 140.741927,151.013484 141.036314,151.064733 C141.097194,151.075544 141.157674,151.089157 141.218554,151.099567 C140.883313,152.515734 140.346607,153.885857 139.620052,155.164291 Z M162.575437,133.682353 C158.959082,140.044895 152.251462,143.575103 145.400853,143.461794 C145.296316,143.460192 145.19258,143.453786 145.088042,143.450182 C144.709144,143.43777 144.330246,143.413347 143.951347,143.378513 C143.757893,143.360496 143.564439,143.343279 143.371785,143.319656 C143.213577,143.300438 143.05577,143.276014 142.897562,143.252391 C142.664856,143.217558 142.43215,143.179521 142.200645,143.135879 C142.076482,143.112657 141.951918,143.089835 141.828155,143.06421 C141.487708,142.993341 141.148462,142.916067 140.812019,142.827181 C140.793996,142.822376 140.775972,142.818773 140.758349,142.813968 C140.379451,142.71267 140.004157,142.59856 139.631667,142.47404 C139.574392,142.454822 139.517117,142.433201 139.459841,142.413582 C139.157043,142.309481 138.856648,142.197373 138.559057,142.078058 C138.467336,142.041222 138.375616,142.003586 138.283895,141.964748 C138.01394,141.851839 137.746789,141.731323 137.48164,141.606002 C137.391522,141.563161 137.301003,141.522722 137.211285,141.478679 C136.868033,141.309716 136.528387,141.133146 136.194748,140.943763 C135.908772,140.781206 135.628804,140.612243 135.354042,140.437674 C135.305178,140.406444 135.258717,140.372812 135.210253,140.341581 C134.983155,140.194239 134.757658,140.044895 134.53857,139.889145 C134.504926,139.865122 134.472884,139.839497 134.43924,139.815474 C134.206534,139.648112 133.976631,139.477547 133.753538,139.301377 C133.738318,139.289366 133.723899,139.276553 133.708679,139.264542 C132.459436,138.272384 131.358388,137.145696 130.415949,135.91651 C130.261746,135.715516 130.114753,135.509717 129.968561,135.303118 C129.801141,135.065688 129.639728,134.824656 129.483523,134.58082 C129.410227,134.46671 129.33693,134.3526 129.266438,134.237289 C129.143476,134.036295 129.023718,133.834099 128.908767,133.629102 C128.8575,133.537813 128.809036,133.445324 128.759371,133.353235 C128.372062,132.637745 128.029611,131.900633 127.736025,131.145104 C127.705585,131.066628 127.675546,130.987752 127.645907,130.908876 C127.350318,130.118112 127.106397,129.308931 126.915747,128.486938 C126.902129,128.429282 126.88771,128.371626 126.874492,128.31357 C126.817217,128.055721 126.76595,127.796671 126.719088,127.53682 C126.703868,127.452339 126.690651,127.367857 126.676632,127.283376 C125.972907,123.059298 126.655004,118.577371 128.931197,114.572705 C129.530785,113.518087 130.232107,112.515119 131.016339,111.591828 C131.89189,110.560832 132.187479,109.157478 131.802172,107.861427 C131.417266,106.564975 130.403533,105.550396 129.107028,105.164023 C127.341506,104.637915 125.624849,103.904407 124.005119,102.984318 C121.231873,101.409598 118.836323,99.3516115 116.883355,96.8668128 C116.108335,95.8810612 114.937997,95.3365355 113.733212,95.3365355 C113.279416,95.3365355 112.821213,95.4138101 112.377029,95.5735643 C112.044191,95.6932799 111.70855,95.8029858 111.372108,95.904684 L109.854112,96.2970628 C109.759187,96.3182832 109.664662,96.3383026 109.569738,96.3579215 L107.51063,96.6758284 C106.683943,96.7611107 105.855253,96.7975459 105.027765,96.7823312 L104.610416,96.7723216 C104.448203,96.7659154 104.28639,96.7539038 104.124177,96.7438941 L101.466282,96.4079698 C101.144659,96.3447088 100.824638,96.2726392 100.505819,96.1941634 L100.364834,96.1597302 C100.176987,96.1120842 99.9907418,96.0560301 99.8040963,96.0027787 L98.0862375,95.4330287 C97.9913126,95.3965935 97.8975894,95.3573556 97.8030651,95.3197193 L95.6225979,94.2963313 C95.5084478,94.2342714 95.3922951,94.1778169 95.2793466,94.1133547 C94.992169,93.9503974 94.7142034,93.7754285 94.4366385,93.5996588 L93.9712265,93.2961658 C93.8022042,93.1828564 93.6363862,93.0659436 93.4713692,92.9478296 L92.2457576,92.0057201 C92.1199922,91.9008188 92.0006353,91.7895114 91.8780741,91.6818074 L91.0309602,90.8954483 C90.8859695,90.7525103 90.7421805,90.6079708 90.6015956,90.4610289 L89.406424,89.0973124 C89.2958787,88.9591791 89.1885375,88.8186434 89.0815969,88.6781077 L87.9593212,87.0425288 C86.2919287,84.3387187 85.2437504,81.2489359 84.9677875,77.9853854 C84.8492316,76.5820307 84.0017172,75.3436352 82.7360529,74.725038 C81.4707891,74.1068413 79.9728194,74.1981294 78.7916663,74.9668715 C73.7450302,78.2520429 67.3602346,78.4474315 62.1297568,75.4765635 C60.4215106,74.5060266 58.9271456,73.2528168 57.6887171,71.7521682 C57.1003435,71.0390798 56.290078,70.5582156 55.4021104,70.3768405 C55.3608561,70.3684324 55.3179998,70.3656297 55.2767455,70.3584227 C55.1694044,70.3400049 55.0624638,70.3207864 54.95312,70.3111771 C54.8501846,70.3019682 54.7456472,70.302769 54.6415102,70.3015678 C54.592646,70.3011674 54.5445828,70.2959624 54.495318,70.2971636 L54.4949175,70.2971636 C54.4945169,70.2971636 54.4941164,70.2971636 54.4937159,70.2971636 C54.3947858,70.2999663 54.2974578,70.3119779 54.1997293,70.3219875 C54.1456582,70.3275929 54.0911866,70.3279933 54.037516,70.3356007 C53.9449944,70.3488134 53.8548759,70.3708347 53.7635558,70.3904536 C53.7062805,70.4024652 53.6482041,70.4100726 53.5917298,70.4248869 C53.5040145,70.4477089 53.4191028,70.478939 53.3333901,70.5077669 C53.2765153,70.5269854 53.2176379,70.5413993 53.1615642,70.5630202 C53.0790557,70.5946507 52.9997514,70.6346894 52.9196461,70.6719253 C52.8635723,70.6979505 52.805496,70.7195713 52.7510244,70.7479988 C52.6745238,70.7880374 52.6020284,70.8356834 52.527931,70.8805267 C52.4734594,70.9133584 52.4165846,70.9425866 52.3637151,70.978221 C52.2912197,71.0266678 52.2239313,71.0831223 52.1550407,71.1363737 C52.1049748,71.1752112 52.0521053,71.2100448 52.0040421,71.2508842 C51.9371542,71.3077391 51.8758736,71.371801 51.8129909,71.4330601 C51.7673309,71.477503 51.7188671,71.517942 51.6752097,71.5643869 C51.6107249,71.6332534 51.5526486,71.7093268 51.4929701,71.7829979 C51.4565222,71.8278412 51.41687,71.869081 51.3824247,71.9155259 C51.3820242,71.9163266 51.3812231,71.9171274 51.3808226,71.9179282 L51.3804221,71.9183286 C51.1585303,72.2182181 50.9302301,72.511301 50.6971236,72.7979777 C50.695121,72.8003801 50.6931183,72.8027824 50.6911157,72.8051847 C50.6795004,72.8191982 50.6674846,72.8332118 50.6562699,72.8472253 C50.4411871,73.1102792 50.2208974,73.3673274 49.9966025,73.6191705 C49.9861888,73.6307817 49.9777777,73.6411917 49.9669635,73.6528029 C49.9425314,73.6800292 49.9176987,73.7060544 49.8932666,73.7332806 C49.6809874,73.9683075 49.4651036,74.1985298 49.2452144,74.423547 L49.1979523,74.4715934 C49.1615043,74.5084289 49.126258,74.5424618 49.0898101,74.578897 C48.9007615,74.7686802 48.7089092,74.9544595 48.5146538,75.1370358 C48.5018369,75.1490474 48.488219,75.1622601 48.4758027,75.1738713 L48.3940953,75.2499448 C48.3428278,75.2971904 48.2955657,75.3396313 48.2454999,75.384875 C48.0840876,75.5318169 47.9206727,75.675956 47.7556557,75.8180932 C47.730022,75.8401145 47.7039878,75.8633369 47.6787546,75.8845574 L47.5601987,75.9850544 C47.489706,76.0443116 47.421216,76.1003657 47.3531264,76.1560194 C47.2285626,76.2585184 47.1031978,76.3594158 46.9770319,76.459112 C46.9357777,76.4915433 46.895725,76.5239747 46.8528686,76.5572067 L45.5755891,77.4853027 C45.491879,77.5421576 45.4077684,77.5982117 45.319252,77.6562677 L45.1434208,77.7711787 C45.0448912,77.8348401 44.9455606,77.8977008 44.8478321,77.9593603 L44.6820141,78.0622597 C44.5822829,78.1235188 44.4817508,78.1843775 44.3892291,78.2392305 L44.2246126,78.3365244 C44.2230105,78.3373252 44.2214084,78.3385263 44.2198063,78.3393271 C44.1268841,78.3933793 44.0335614,78.4470311 43.9322282,78.5042864 C43.9286234,78.5062883 43.9250187,78.5082902 43.9218145,78.5102922 C43.9122018,78.5158976 43.9021887,78.521503 43.8921755,78.5271084 L43.8789581,78.5347157 C43.4239598,78.7905627 42.953341,79.0351989 42.4807195,79.2618177 C42.4807195,79.2618177 42.480319,79.2618177 42.480319,79.262218 C40.2670086,80.3228419 37.9359434,81.0251199 35.5676292,81.3734561 C35.541595,81.3770596 35.5159613,81.3806631 35.489927,81.384667 C34.0780705,81.5876629 32.6537977,81.6657383 31.2339307,81.6176919 C31.2291243,81.6176919 31.224318,81.6172915 31.2195117,81.6172915 C29.7928357,81.568044 28.3713666,81.3914735 26.9719264,81.0895821 C26.9555048,81.0859786 26.9386827,81.0823751 26.9222611,81.0787717 C26.4620559,80.9782747 26.0038534,80.8653657 25.5488551,80.7376424 C25.5484546,80.7376424 25.5480541,80.737242 25.5476535,80.737242 C24.6584843,80.4878012 23.782132,80.183107 22.9209996,79.8299661 C22.828478,79.7919294 22.7359563,79.7518908 22.6438352,79.7126529 C22.3202096,79.5753203 21.9993878,79.4291792 21.6809691,79.2770323 C21.57523,79.2261833 21.4690905,79.1773361 21.363752,79.1248855 C20.9628248,78.9258934 20.5651018,78.7188935 20.1733867,78.4962786 C19.8517638,78.3137024 19.5385519,78.1223176 19.2285443,77.9273294 C19.1424311,77.8728768 19.0567183,77.8176235 18.9714062,77.7623702 C18.7230796,77.6014148 18.4783578,77.4368559 18.2376413,77.2682932 C18.1751591,77.2246511 18.1114754,77.1822101 18.0489932,77.1373668 C17.7538051,76.9263631 17.4642243,76.7093536 17.181052,76.4867387 C17.1241772,76.4418954 17.068504,76.3954506 17.0120297,76.3502069 C16.7737163,76.1592225 16.5394082,75.9646347 16.3095059,75.766043 C16.250228,75.7147935 16.1905495,75.663544 16.1316721,75.6114938 C7.77908893,68.240378 5.42319107,55.7623322 11.1403087,45.7030214 C17.264762,34.9286203 30.5149853,30.6881267 41.6376109,35.5231942 C41.6780641,35.5408112 41.7189178,35.5560259 41.759371,35.5740433 C42.0589649,35.7061709 42.3561557,35.8495092 42.6525455,35.9948495 C42.7238392,36.0300836 42.7967351,36.0613137 42.8676283,36.0969481 C43.2116807,36.2703155 43.5533299,36.4536925 43.8921755,36.6450773 C43.9097987,36.6550869 43.9278224,36.663495 43.945045,36.6735047 C44.1745468,36.8040307 44.3996428,36.938961 44.6231367,37.0754928 C44.6299456,37.079897 44.6375556,37.0826997 44.6443646,37.0867036 C44.7717321,37.1631774 44.9031048,37.2348466 45.0412865,37.298508 C46.00976,37.7433375 50.9186148,40.3690722 52.453433,48.3960211 C52.8203155,50.3138725 54.4993233,51.6491616 56.3825997,51.6491616 C56.6317272,51.6491616 56.8848601,51.6255388 57.1391945,51.577092 C59.3116512,51.1618912 60.735924,49.0646666 60.3213789,46.8929701 C58.731288,38.577743 54.4288306,34.0381606 51.2983141,31.7571587 C51.6499765,30.6945328 52.1037733,29.663938 52.6645106,28.6773856 C52.8287265,28.3883065 53.0029556,28.1056336 53.1835932,27.827365 C53.2228448,27.7665063 53.264099,27.7076494 53.3041517,27.6471911 C53.458755,27.4153673 53.6177641,27.1863462 53.7835821,26.9629305 C53.8144227,26.9212903 53.8452632,26.8792497 53.8765043,26.8376095 C55.1449723,25.1559862 56.7158378,23.7161963 58.5037889,22.6135318 C58.5093963,22.6099283 58.5142026,22.6055241 58.51981,22.602321 C59.8775954,21.7675151 61.3603451,21.1172874 62.9392212,20.6824676 C67.3205825,19.4769038 71.9094165,20.0482554 75.859811,22.2924218 C77.7995617,23.3938851 79.4749647,24.8352766 80.8403602,26.574956 C81.6910788,27.6596031 83.0412542,28.2297535 84.4106549,28.0860147 C85.7816577,27.9418755 86.9820361,27.1026654 87.588834,25.8650707 C87.8956374,25.2384658 88.1984356,24.6635108 88.5144511,24.1077743 C92.710769,16.7242465 99.5325393,11.4167229 107.722909,9.16214639 C115.912878,6.9079703 124.490958,7.97660191 131.87707,12.1722522 C140.737922,17.2047103 146.280009,25.8274344 147.655819,35.1896723 C147.659824,35.3302079 147.669837,35.4707436 147.688662,35.6116797 C148.172898,39.2223653 148.036319,42.8402578 147.300551,46.3408371 C147.298949,46.3476437 147.297748,46.3544503 147.296146,46.3612568 C147.283329,46.4217152 147.267708,46.4809724 147.254491,46.5414308 C147.245679,46.5766648 147.233663,46.6102973 147.225653,46.646332 C146.886807,48.186619 146.433812,49.694875 145.873475,51.1610904 C145.840632,51.2467731 145.805385,51.3312547 145.771741,51.416537 C145.719673,51.5494653 145.6644,51.6811925 145.610729,51.8137204 C145.511399,52.0555539 145.410867,52.2969869 145.305528,52.5372189 C145.274687,52.6076869 145.243847,52.6781549 145.212205,52.7482225 C145.169349,52.8443153 145.126493,52.9404081 145.082435,53.0361005 C144.914614,53.4016533 144.740785,53.7656047 144.557745,54.1275541 C144.321033,54.5964067 144.077113,55.0616558 143.817171,55.519698 C139.092959,63.8317221 130.977888,69.5272203 121.553095,71.1463834 C119.373028,71.5211451 117.909504,73.5911434 118.283996,75.7700468 C118.619237,77.7199292 120.312263,79.096458 122.22638,79.096458 C122.451877,79.096458 122.680177,79.0776399 122.909278,79.0380016 C133.924963,77.1453745 143.509967,70.8036525 149.546705,61.5022733 C149.688491,61.5963642 149.831079,61.6892538 149.970462,61.7861474 C150.046162,61.838598 150.123463,61.8898475 150.198362,61.9430989 C150.47072,62.1364856 150.737471,62.3354777 151.000617,62.538874 C151.104353,62.6189513 151.205686,62.701431 151.307821,62.7831098 C151.479246,62.920042 151.649069,63.0593765 151.81649,63.2007129 C151.927435,63.2944034 152.039182,63.3880938 152.148526,63.4837862 C152.381633,63.6879833 152.611134,63.8949832 152.83583,64.1075884 C152.940768,64.2068843 153.041701,64.3089828 153.144636,64.4098802 C153.288425,64.5508163 153.431013,64.6925531 153.570796,64.8366922 C153.68014,64.9496012 153.789083,65.0629106 153.896425,65.1778216 C154.056235,65.3487866 154.21244,65.5225544 154.367043,65.6979236 C154.472782,65.8176392 154.57772,65.9381556 154.680656,66.0598731 C154.855285,66.2664725 155.027111,66.4750739 155.194531,66.6872787 C155.267427,66.7793676 155.339122,66.8726577 155.410415,66.9655474 C155.590652,67.2005742 155.767285,67.4380034 155.93871,67.6798369 C155.965545,67.7178736 155.993983,67.7551096 156.020818,67.7931463 C156.237903,68.1026451 156.447779,68.4177492 156.650045,68.7376581 C156.659258,68.752072 156.667669,68.7664859 156.676881,68.7808998 C157.936537,70.7820316 158.909016,72.9789524 159.554665,75.3228151 C159.871882,76.4747271 160.101784,77.6366488 160.248377,78.8005724 C160.257189,78.8722416 160.265199,78.9443111 160.27321,79.0159803 C160.302448,79.2682238 160.325679,79.5204673 160.347307,79.7727109 C160.359723,79.9224554 160.374142,80.0717996 160.383755,80.2223449 C160.386959,80.2675886 160.38776,80.3124319 160.390564,80.3576756 C160.420603,80.8701703 160.435823,81.3850674 160.43342,81.9027671 C160.43342,81.917181 160.43342,81.9319953 160.43342,81.9464092 C160.431818,82.225879 160.42541,82.5061496 160.414195,82.7872209 C160.413795,82.7936271 160.414996,82.7996329 160.414596,82.8060391 C160.406986,82.9978242 160.398174,83.189209 160.385758,83.3805937 C160.384957,83.392205 160.382553,83.4030154 160.381752,83.4146266 C160.293236,84.757523 160.093774,86.0759958 159.790575,87.3672423 C159.761337,87.4917625 159.728093,87.6154819 159.696451,87.7400021 C159.625959,88.0190715 159.551461,88.2973402 159.471355,88.5740073 C159.42169,88.7437711 159.369621,88.9131346 159.316351,89.0820977 C159.243055,89.3147223 159.166154,89.5457453 159.085648,89.776368 C159.021564,89.959745 158.956678,90.143122 158.887788,90.3252979 C158.804078,90.5479128 158.71476,90.7689261 158.624241,90.9895391 C158.551746,91.1665099 158.480052,91.3438812 158.403151,91.5200512 C158.295809,91.7654882 158.180458,92.0085228 158.064305,92.2515574 C157.995414,92.3960969 157.930129,92.5418376 157.858034,92.685176 C157.664179,93.071549 157.461512,93.4551193 157.246029,93.8342853 C156.290372,95.5155083 155.148871,97.0666056 153.840351,98.4639546 C153.404177,98.9300045 152.94958,99.3788378 152.476958,99.8096537 C151.477243,100.720933 151.005423,102.075841 151.222909,103.41073 C151.440395,104.746019 152.317148,105.881115 153.554775,106.428844 C154.152361,106.693499 154.742337,106.990185 155.307881,107.312096 C155.581841,107.467446 155.850194,107.629603 156.114541,107.796564 C156.259932,107.888653 156.400918,107.986347 156.543505,108.082039 C156.657255,108.158513 156.773408,108.232184 156.885555,108.31066 C157.075004,108.443589 157.259246,108.582122 157.443088,108.721056 C157.502767,108.7659 157.564047,108.809141 157.622925,108.854385 C157.833602,109.017743 158.039472,109.185905 158.242139,109.357271 C158.270176,109.380893 158.299815,109.403715 158.327852,109.427338 C158.54734,109.614719 158.762423,109.806905 158.9727,110.003494 C158.982312,110.012303 158.992325,110.020711 159.001537,110.02992 C159.884298,110.857519 160.684951,111.764394 161.394684,112.739335 C161.395886,112.741337 161.397488,112.742939 161.39869,112.74454 C161.570916,112.981169 161.736734,113.221801 161.898146,113.466037 C161.906157,113.478449 161.914568,113.490861 161.922979,113.503273 C162.07598,113.736298 162.223374,113.973327 162.365961,114.213158 C162.381983,114.240384 162.398404,114.26721 162.414425,114.294437 C162.5474,114.520255 162.675168,114.749276 162.798931,114.980699 C162.823363,115.026744 162.848196,115.072388 162.872227,115.118432 C162.985176,115.33344 163.093318,115.55165 163.198656,115.771463 C163.230699,115.838327 163.26234,115.905592 163.293581,115.972857 C163.387304,116.175052 163.477423,116.37965 163.564337,116.585448 C163.602387,116.675135 163.639236,116.765622 163.676084,116.85611 C163.752184,117.044291 163.825481,117.234074 163.895973,117.425059 C163.937228,117.537167 163.97688,117.649676 164.016131,117.762985 C164.077011,117.938354 164.136289,118.114524 164.192363,118.292296 C164.265659,118.52452 164.338956,118.756744 164.403841,118.992972 C165.778449,123.974181 165.128394,129.190817 162.575437,133.682353 Z M171.079019,108.593733 C170.650455,109.348062 170.156606,110.06075 169.605882,110.72379 C168.131543,108.090848 166.232646,105.730169 163.972874,103.72183 C163.935225,103.688598 163.897175,103.655767 163.859525,103.622534 C163.534298,103.337059 163.202261,103.05839 162.862615,102.787729 C162.808543,102.744487 162.754873,102.700044 162.700401,102.657203 C162.319901,102.358514 161.933793,102.065832 161.53607,101.785962 C161.658231,101.629811 161.774784,101.469256 161.894141,101.311103 C162.256618,100.830639 162.609882,100.343369 162.945924,99.8424854 C163.392912,99.1762422 163.815868,98.4919816 164.214392,97.7909049 C164.454308,97.3684971 164.680605,96.9416851 164.900494,96.5124707 C164.950961,96.4139756 165.000626,96.3154805 165.049891,96.2169855 C165.483661,95.3485471 165.876578,94.466896 166.22824,93.5716317 C166.264288,93.4795428 166.299934,93.3870536 166.335181,93.2945643 C166.49459,92.8777619 166.646791,92.4589576 166.788176,92.0369502 C166.800993,91.9989135 166.815012,91.9612772 166.827829,91.9232405 C166.967212,91.5016335 167.09538,91.0768234 167.21674,90.6500113 C167.266005,90.4786459 167.312065,90.3068801 167.358126,90.1347139 C167.38376,90.0386211 167.412598,89.9433291 167.43743,89.846836 C173.013963,94.2614977 174.69978,102.223184 171.079019,108.593733 Z" id="Shape" fill="#000000"></path>
                <path d="M110.773292,71.0811258 L110.72796,71.0727364 C108.571107,70.6556591 106.487025,72.0746805 106.072276,74.2415644 C105.657527,76.4084484 107.069979,78.5022239 109.226434,78.9189017 C109.232399,78.9197007 109.265802,78.9260926 109.276141,78.9280901 C109.528648,78.9764295 109.779963,79 110.027301,79 C111.895858,79 113.562011,77.6704665 113.927849,75.7588626 C114.3422,73.5919786 112.929747,71.4978036 110.773292,71.0811258 Z" id="Shape" fill="#000000"></path>
                <path d="M54.9665393,144 C56.3477995,144 57.6901509,143.2822 58.4218733,142.002164 L58.4806335,141.899508 C59.5641227,140.003933 58.8975128,137.593895 56.9913817,136.516406 C55.0852507,135.438917 52.6617922,136.10223 51.578303,137.997411 L51.5195429,138.100066 C50.4356567,139.995642 51.1026636,142.405679 53.0087946,143.483168 C53.6273641,143.833777 54.3015176,144 54.9665393,144 Z" id="Shape" fill="#000000"></path>
            </g>
        </g>
    </g>
</svg>