<?xml version="1.0" encoding="UTF-8"?>
<svg width="49px" height="28px" viewBox="0 0 49 28" version="1.1" xmlns="http://www.w3.org/2000/svg" xmlns:xlink="http://www.w3.org/1999/xlink">
    <!-- Generator: Sketch 51.3 (57544) - http://www.bohemiancoding.com/sketch -->
    <title>Group 3</title>
    <desc>Created with Sketch.</desc>
    <defs></defs>
    <g id="Page-1" stroke="none" stroke-width="1" fill="none" fill-rule="evenodd">
        <g id="Galaxy-S8" transform="translate(-156.000000, -236.000000)" stroke="#000000" stroke-width="0.7">
            <g id="Group-5">
                <g id="Group-4">
                    <g id="Group-7" transform="translate(51.000000, 237.000000)">
                        <g id="Group-6" transform="translate(105.000000, 0.000000)">
                            <g id="Group-3">
                                <path d="M0,2.8508212 C9.35779638,12.0720514 16.0616752,17.7269255 20.1116364,19.8154436 C24.1615976,21.9039616 27.9706197,21.6704686 31.5387026,19.1149644 C36.5464272,19.8307196 39.807435,20.5979733 41.3217259,21.4167257 C42.8360169,22.2354781 43.514676,23.8102505 43.3577033,26.1410428 L47.8794106,26.0806094 C47.0595105,22.8809383 45.8943935,20.7904125 44.3840596,19.809032 C42.8737257,18.8276515 39.7247431,17.8691533 34.937112,16.9335375 C31.0743362,7.82660809 27.1438064,2.46731407 23.1455225,0.855655451 C19.1472386,-0.756003171 11.4320644,-0.0909479211 0,2.8508212 Z" id="Path-6" fill="#417505"></path>
                                <path d="M30.3752065,15.5653336 C26.7127167,10.7851894 23.5386586,7.73073466 20.8530323,6.4019693 C18.1674059,5.07320394 13.5497285,4.27254751 7,4" id="Path-7"></path>
                            </g>
                        </g>
                    </g>
                </g>
            </g>
        </g>
    </g>
</svg>