<svg height="512pt" viewBox="0 -56 512.00061 512" width="512pt" xmlns="http://www.w3.org/2000/svg"><path d="m431.609375 14.808594c28.480469 13.277344 40.679687 51.449218 34.4375 95.796875v.007812l-125.855469 123.367188-.53125.179687c-3.179687-9.417968-8.039062-18.46875-14.238281-27.027344l.449219-.332031 10.742187-157.375c29.867188-32.886719 66.6875-47.816406 94.996094-34.617187zm0 0" fill="#90e36a"/><path d="m493.257812 83.9375-153.066406 150.042969-.53125.179687c-3.179687-9.417968-8.039062-18.46875-14.238281-27.027344l.449219-.332031c.265625-3.882812 13.289062-194.703125 13.300781-194.84375-36.621094 13.28125-69.609375 42.75-88.769531 83.859375-7.078125 15.179688-12.078125 31.507813-15.007813 48.175782-24.667969-9.058594-50.839843-14.175782-75.398437-14.175782-45.300782 0-85.898438 17.398438-113.40625 44.90625 5.152344 1.820313 227.332031 80.28125 237.402344 83.839844-26.851563 9.746094-230.800782 83.792969-237.503907 86.226562 27.5 27.578126 68.160157 45.019532 113.507813 45.019532 61.476562 0 133.054687-32.058594 165.875-77.9375l1.582031 1.140625c59.945313 5.148437 128.886719-43.652344 158.585937-107.320313 19.136719-41.046875 20.527344-85.207031 7.21875-121.753906zm0 0" fill="#ffe9cb"/><path d="m283.992188 258.5625-202.222657 73.417969-.25-.699219c-42.421875-13.171875-71.519531-40.230469-71.519531-71.46875 0-31.71875 29.988281-59.121094 73.476562-72.058594zm0 0" fill="#90e36a"/><path d="m149.996094 159.8125c-5.519532 0-10 4.480469-10 10s4.480468 10 10 10c5.519531 0 10-4.480469 10-10s-4.480469-10-10-10zm0 0"/><path d="m191.890625 163.140625c-5.40625-1.117187-10.695313 2.367187-11.808594 7.773437-1.117187 5.410157 2.367188 10.699219 7.773438 11.8125 31.6875 6.527344 72.285156 22.304688 88.582031 39.835938 3.761719 4.042969 10.089844 4.273438 14.132812.515625 4.046876-3.761719 4.277344-10.089844.515626-14.132813-20.152344-21.679687-64.339844-38.625-99.195313-45.804687zm0 0"/><path d="m495.46875 74.183594c-3.3125-.753906-6.78125.230468-9.210938 2.609375l-8.625 8.457031c-.746093-37.976562-15.761718-67.367188-41.796874-79.507812-25.921876-12.085938-58.007813-4.769532-87.503907 18.886718l.816407-11.992187c.230468-3.371094-1.257813-6.632813-3.960938-8.667969-2.699219-2.035156-6.246094-2.566406-9.425781-1.414062-40.476563 14.679687-74.890625 47.132812-94.417969 89.03125-5.761719 12.355468-10.257812 25.53125-13.453125 39.285156-22.886719-7.246094-46.144531-11.058594-67.894531-11.058594-46.160156 0-90.074219 17.4375-120.476563 47.839844-2.429687 2.429687-3.441406 5.933594-2.679687 9.28125.757812 3.347656 3.183594 6.074218 6.421875 7.21875l11.402343 4.027344c-34.292968 16.699218-54.664062 42.753906-54.664062 71.632812 0 28.679688 20.304688 54.734375 54.394531 71.46875l-11.316406 4.109375c-3.210937 1.167969-5.605469 3.890625-6.347656 7.226563-.746094 3.332031.265625 6.816406 2.679687 9.234374 30.386719 30.476563 74.339844 47.957032 120.585938 47.957032 61.503906 0 133.089844-30.519532 169.847656-76.628906 2.09375.117187 4.195312.199218 6.320312.199218 65.257813 0 130.839844-53.226562 158.9375-113.460937 19.507813-41.84375 22.261719-89.011719 7.550782-129.402344-1.160156-3.195313-3.867188-5.578125-7.183594-6.332031zm-236 25.855468c14.890625-31.957031 39.414062-57.65625 68.609375-72.40625l-10.589844 155.171876c-18.417969-18.082032-42.984375-33.832032-70.644531-45.085938 2.90625-13.246094 7.125-25.894531 12.625-37.679688zm-239.46875 159.773438c0-25.300781 24.730469-49.230469 63.28125-61.527344l171.050781 60.40625-171.847656 62.390625c-38.027344-12.359375-62.484375-36.253906-62.484375-61.269531zm139.996094 119.996094c-35.128906 0-68.65625-11.277344-94.3125-31.351563l221.722656-80.496093c3.96875-1.441407 6.605469-5.222657 6.585938-9.445313-.019532-4.21875-2.6875-7.976563-6.667969-9.382813l-221.375-78.175781c25.632812-19.941406 59.054687-31.144531 94.046875-31.144531 78.410156 0 173.996094 55.132812 173.996094 120 0 65.265625-96.320313 119.996094-173.996094 119.996094zm176.03125-174.953125 10.320312-151.214844c27.074219-28.542969 58.617188-40.222656 81.035156-29.769531 22.613282 10.542968 33.90625 42.539062 29.1875 82.03125l-113.363281 111.121094c-2.101562-4.105469-4.484375-8.167969-7.179687-12.167969zm140.949218-3.390625c-24.121093 51.707031-79.371093 97.96875-134.019531 101.679687 7.324219-14.085937 11.035157-28.601562 11.035157-43.332031 0-7.511719-1-15.042969-2.945313-22.464844l122-119.59375c.035156-.03125.0625-.066406.09375-.101562l15.265625-14.960938c7.359375 31.757813 3.414062 66.933594-11.429688 98.773438zm0 0"/></svg>