<?xml version="1.0" encoding="UTF-8"?>
<svg width="39px" height="23px" viewBox="0 0 39 23" version="1.1" xmlns="http://www.w3.org/2000/svg" xmlns:xlink="http://www.w3.org/1999/xlink">
    <!-- Generator: Sketch 51.3 (57544) - http://www.bohemiancoding.com/sketch -->
    <title>Group 3</title>
    <desc>Created with Sketch.</desc>
    <defs></defs>
    <g id="Page-1" stroke="none" stroke-width="1" fill="none" fill-rule="evenodd">
        <g id="Galaxy-S8" transform="translate(-199.000000, -241.000000)" stroke="#000000" stroke-width="0.7">
            <g id="Group-5">
                <g id="Group-4">
                    <g id="Group-7" transform="translate(51.000000, 237.000000)">
                        <g id="Group-6" transform="translate(105.000000, 0.000000)">
                            <g id="Group-3" transform="translate(62.500000, 15.500000) scale(-1, 1) translate(-62.500000, -15.500000) translate(43.000000, 4.000000)">
                                <path d="M0.165691881,11.3776029 C6.46300818,11.2811483 11.6366469,12.2771801 15.6866082,14.3656981 C19.7365694,16.4542162 24.4282433,15.7223758 29.76163,12.1701769 C30.4458969,11.5344931 31.5451759,11.6260274 33.0594668,12.4447797 C34.5737577,13.2635321 34.8933359,16.5227036 34.0182014,22.2222942 L38.566488,22.1899696 C37.7224339,15.2025202 36.5452399,11.2181053 35.034906,10.2367248 C33.524572,9.25534427 31.8614247,9.06835281 30.0454638,9.67575041 C28.3190146,5.50754814 25.456648,2.61761769 21.4583641,1.00595907 C17.4600802,-0.605699551 10.3625228,2.85151505 0.165691881,11.3776029 Z" id="Path-6" fill="#417505"></path>
                                <path d="M25.9300875,10.5709016 C23.9168454,8.55528655 21.4743075,7.22710909 18.6024738,6.58636915 C15.7306401,5.94562922 12.6260664,6.58420009 9.28875269,8.50208178" id="Path-7"></path>
                            </g>
                        </g>
                    </g>
                </g>
            </g>
        </g>
    </g>
</svg>