<?xml version="1.0" encoding="UTF-8"?>
<svg width="283px" height="236px" viewBox="0 0 283 236" version="1.1" xmlns="http://www.w3.org/2000/svg" xmlns:xlink="http://www.w3.org/1999/xlink">
    <!-- Generator: Sketch 51.3 (57544) - http://www.bohemiancoding.com/sketch -->
    <title>walnut</title>
    <desc>Created with Sketch.</desc>
    <defs></defs>
    <g id="Page-1" stroke="none" stroke-width="1" fill="none" fill-rule="evenodd">
        <g id="Galaxy-S8-Copy-2" transform="translate(-26.000000, -486.000000)" fill-rule="nonzero">
            <g id="walnut" transform="translate(167.029183, 603.942893) rotate(-89.000000) translate(-167.029183, -603.942893) translate(49.529183, 462.942893)">
                <path d="M235,140.999044 C235,123.947976 225.745759,108.365289 211.069619,100.092012 C212.481273,90.4935572 211.316369,78.301476 198.814717,63.9756705 C190.059484,53.9409973 179.072483,47.957316 167.351289,47.090938 C153.097048,46.1871069 141.20401,38.8925675 135.125028,27.6434229 L135.125028,5.87436724 C135.125028,3.57375634 133.776713,1.47968819 131.682639,0.527388392 C129.582507,-0.424911406 127.127121,-0.0691070857 125.388852,1.44553979 C116.547698,9.15646932 101.682089,21.5947494 96.4210178,24.5838362 C93.8791584,26.0351433 90.781009,26.2648188 87.6773518,25.2893863 C69.8226482,19.5519039 50.573915,28.0317233 41.1593963,45.0200026 C36.1676581,54.0335284 29.4668429,61.6981924 21.7729676,67.1834172 C8.14111038,76.9024931 0,93.5178939 0,111.624809 C0,115.050114 0.298523904,118.475419 0.889513109,121.814251 C2.9494382,133.512833 3.12128222,143.53594 1.40614673,152.468501 C0.476426526,157.339605 0.000550782111,162.377045 0.000550782111,167.437068 C0.000550782111,188.642124 8.15322758,208.080276 21.8082177,219.428561 C22.9042741,220.340654 23.5062789,221.67189 23.5007711,223.249877 C23.5007711,250.283845 43.8395021,271.965327 67.5517735,270.135083 C76.0029742,269.429533 83.6335096,270.484828 90.2313285,273.21615 C103.897885,278.878726 117.75336,282 129.250936,282 C132.498348,282 135.126129,279.372225 135.126129,276.124822 L135.126129,258.499841 L146.875964,258.499841 C169.704781,258.499841 188.856026,242.206096 192.894911,220.008533 C210.948998,213.140298 223.250165,195.670085 223.250165,176.249008 C223.250165,174.946411 223.146618,173.678514 222.986341,172.336262 C230.754571,163.696165 235,152.680552 235,140.999044 Z" id="Shape" fill="#000000"></path>
                <path d="M124,271 C115.238041,270.154522 105.250347,267.525311 95.2571262,263.383517 C88.5161373,260.593605 81.044018,259.18429 72.985005,259.18429 C71.0391924,259.18429 69.0591167,259.270439 67.0497516,259.431693 C66.3932263,259.483604 65.7256485,259.51232 65.0519917,259.51232 C48.8013342,259.51232 35.5785402,243.658637 35.5785402,224.140295 C35.5956717,219.118232 33.4254911,214.430273 29.6206289,211.272017 C18.7520415,202.24622 12,185.741999 12,168.208405 C12,163.87664 12.4028678,159.574145 13.203077,155.420754 C15.1947579,145.031478 15.0339424,133.584111 12.7079199,120.417072 C12.2414996,117.747548 12,114.997949 12,112.24835 C12,97.8901307 18.3149107,84.8202856 28.8955775,77.2844295 C38.0427203,70.7669025 45.9696547,61.741105 51.824224,51.1740079 C58.5652129,39.0247456 71.909033,32.829174 84.5847227,36.9019381 C90.773081,38.8750888 97.404649,38.259342 103.328297,34.9055934 C107.663132,32.443711 116.815801,25.0227207 124,19 L124,271 Z" id="Shape" fill="#C38355"></path>
                <g id="Group" transform="translate(12.000000, 18.000000)" fill="#FFFFFF" opacity="0.2">
                    <path d="M102.947862,16.3588253 C105.031724,15.1728188 108.257655,12.8063297 111.815724,10.0299585 L111.815724,0.448550218 C104.64331,6.47304367 95.5051034,13.8962183 91.177931,16.3588253 C89.3285517,17.4072838 87.4008276,18.0939192 85.4488276,18.6115197 C91.2772414,20.1449869 97.4162759,19.4970197 102.947862,16.3588253 Z" id="Shape"></path>
                    <path d="M94.8904828,244.903448 C88.1605517,242.112714 80.7006897,240.702985 72.6548966,240.702985 C70.7122759,240.702985 68.7354483,240.789159 66.7293793,240.950461 C66.073931,241.002386 65.4074483,241.031111 64.7348966,241.031111 C48.5108966,241.031111 35.3097931,225.172762 35.3097931,205.648675 C35.3268966,200.625133 33.1602759,195.935795 29.3616552,192.776609 C18.5108966,183.748155 11.769931,167.239629 11.769931,149.700873 C11.769931,145.367834 12.1721379,141.064072 12.9710345,136.909459 C14.9594483,126.517124 14.7988966,115.066389 12.4766897,101.895474 C12.0110345,99.2257162 11.769931,96.4747555 11.769931,93.7243472 C11.769931,79.3619017 18.0744828,66.2882096 28.6377931,58.7501354 C37.769931,52.23069 45.6838621,43.2022358 51.5288276,32.6320284 C55.7572414,24.996179 62.5892414,19.7223996 70.2223448,17.8597009 C58.2609655,15.1496179 46.0921379,21.1951026 39.7588966,32.6320284 C33.913931,43.2022358 26,52.23069 16.8678621,58.7501354 C6.30455172,66.2876572 0,79.3613493 0,93.7237948 C0,96.4742031 0.241103448,99.2246114 0.706758621,101.894921 C3.02841379,115.066389 3.18951724,126.517124 1.20110345,136.908906 C0.402206897,141.06352 0,145.367834 0,149.700321 C0,167.239076 6.74151724,183.747603 17.5917241,192.776057 C21.3903448,195.935242 23.5575172,200.624581 23.5398621,205.648122 C23.5398621,225.17221 36.7409655,241.030559 52.9649655,241.030559 C53.6375172,241.030559 54.304,241.001834 54.9594483,240.949908 C56.9649655,240.788607 58.9423448,240.702432 60.8849655,240.702432 C68.9307586,240.702432 76.3906207,242.112162 83.1205517,244.902895 C93.0973793,249.045908 103.06869,251.675341 111.815724,252.52162 L111.815724,250.340738 C106.303448,249.010555 100.639448,247.290928 94.8904828,244.903448 Z" id="Shape"></path>
                </g>
                <path d="M212.2663,176.3247 C212.2663,191.787131 201.88065,205.593109 186.9949,210.014732 C184.0623,210.483508 166.1477,212.53254 158.88165,192.020691 C157.7932,188.949076 154.4184,187.350599 151.3879,188.443306 C148.3343,189.536012 146.7415,192.900819 147.82445,195.96636 C154.7286,215.456178 169.86295,221.284682 181.1946,221.948919 C176.8056,236.611835 163.4406,247 147.7326,247 L136,247 L136,46 C144.36165,53.3032983 155.3732,57.8353519 167.83125,58.6249275 C175.91515,59.2289805 184.05625,63.8068626 190.75965,71.5143353 C201.73655,84.1447844 201.45605,93.5832498 199.52555,101.905818 C199.47275,102.134409 199.51455,102.358582 199.48925,102.587173 C199.4656,102.665026 199.4139,102.731836 199.39355,102.810794 C195.4396,117.982241 181.6687,129.20857 165.33425,129.20857 C162.09145,129.20857 159.4674,131.842882 159.4674,135.098363 C159.4674,138.353843 162.09145,140.988155 165.33425,140.988155 C184.83945,140.988155 201.5116,128.929734 208.5857,111.89257 C218.0842,118.39801 224,129.200288 224,140.987051 C224,150.523247 220.24735,159.472506 213.42955,166.184451 C212.08865,167.501331 211.5216,169.802143 211.7966,171.665652 C212.0199,173.201736 212.2663,174.726224 212.2663,176.3247 Z" id="Shape" fill="#BA7118"></path>
                <path d="M224,140.889222 C224,130.771038 219.440789,121.558919 212.165849,115 C214.344261,119.588709 215.690026,124.60539 215.690026,129.89031 C215.690026,139.403165 211.937613,148.330521 205.120245,155.026038 C203.77943,156.339695 203.212415,158.634876 203.487398,160.493823 C203.710684,162.025596 203.957068,163.546353 203.957068,165.141468 C203.957068,180.566053 193.572076,194.33824 178.687267,198.749042 C176.691994,199.067404 167.792457,199.943175 160,194.136097 C167.793557,211.856965 184.194069,210.194652 186.997792,209.747954 C201.8826,205.337153 212.267592,191.564966 212.267592,176.140381 C212.267592,174.545266 212.021208,173.025059 211.797922,171.492736 C211.52294,169.633788 212.089954,167.338607 213.430769,166.02495 C220.247587,159.329984 224,150.402078 224,140.889222 Z" id="Shape" fill="#000000" opacity="0.1"></path>
                <path d="M147.682487,235.853714 L136,235.853714 L136,247 L147.682487,247 C163.322661,247 176.629404,236.498411 181,221.675397 C179.382863,221.57939 177.677011,221.336582 175.939396,221 C169.602278,230.048647 159.29433,235.853714 147.682487,235.853714 Z" id="Shape" fill="#000000" opacity="0.1"></path>
                <path d="M161.64941,65.9286671 C169.788512,66.5309645 177.985203,71.0955421 184.734378,78.7806148 C195.786234,91.3743565 195.503819,100.785391 193.560136,109.083772 C193.506976,109.311698 193.549061,109.53522 193.523588,109.763146 C193.499777,109.840773 193.447724,109.907389 193.427235,109.986117 C192.479759,113.586689 190.937549,116.942267 188.968394,120 C194.133273,115.439827 198.02673,109.48457 199.826436,102.645686 C199.847479,102.566958 199.899532,102.500342 199.922789,102.422715 C199.948816,102.194789 199.906177,101.971267 199.959337,101.743341 C201.90302,93.4449603 202.185989,84.0339255 191.133579,71.4401839 C184.384404,63.7556617 176.187712,59.1905336 168.048611,58.5882362 C155.505491,57.8009553 144.418748,53.282073 136,46 L136,57.9815344 C143.345569,62.5136297 152.058915,65.3263697 161.64941,65.9286671 Z" id="Shape" fill="#FFFFFF" opacity="0.2"></path>
                <g id="Group" transform="translate(35.000000, 58.000000)" fill="#000000">
                    <path d="M12.1085271,59.8612897 C12.1085271,53.0376916 14.6997519,46.6160654 18.7131783,43.5028505 C29.9559457,34.7725047 39.6334109,22.8137009 46.6970853,8.91947664 C48.164969,6.02461682 47.0179612,2.48075701 44.1284264,1.00465421 C41.2273333,-0.459869159 37.6954961,0.683186916 36.2281628,3.57804673 C29.9504419,15.9443364 21.4018217,26.5301495 11.5240155,34.2040093 C4.64417054,39.5399252 0.367108527,49.3730748 0.367108527,59.8612897 C0.367108527,61.9461402 0.533325581,64.0138972 0.85420155,66.012729 C1.32423256,68.8960093 3.81803876,70.9466729 6.64482946,70.9466729 C6.96020155,70.9466729 7.27557364,70.923514 7.59644961,70.8722336 C10.7958527,70.3439907 12.9682326,67.3223084 12.4470155,64.1175607 C12.2175039,62.7390561 12.1085271,61.3026542 12.1085271,59.8612897 Z" id="Shape"></path>
                    <path d="M53.2037674,164.725243 C50.3544109,164.725243 47.4934961,164.846 45.0684884,165.052776 C41.8690853,165.052776 37.4087442,160.130411 37.4087442,152.129019 C37.4489225,139.360757 31.710031,127.390374 21.6594031,119.297449 C19.1193643,117.269944 15.4389225,117.666402 13.4035891,120.193477 C11.3737597,122.726617 11.7755426,126.431486 14.297969,128.464505 C21.5504264,134.306056 25.6953953,142.915645 25.6667752,152.111374 C25.6667752,165.724383 34.364,176.798187 45.5154031,176.798187 C45.5269612,176.798187 45.5324651,176.798187 45.5440233,176.798187 C48.101124,176.596925 50.6582248,176.487748 53.2037674,176.487748 C56.4488527,176.487748 59.0747519,173.857009 59.0747519,170.605944 C59.0747519,167.355981 56.4488527,164.725243 53.2037674,164.725243 Z" id="Shape"></path>
                    <path d="M70.8161705,65.0648692 C70.8161705,61.8138037 68.1902713,59.1830654 64.945186,59.1830654 C61.7001008,59.1830654 59.0742016,61.8138037 59.0742016,65.0648692 C59.0742016,68.3732804 57.801155,69.7865234 54.9231783,72.6698037 C51.7188217,75.8806168 47.3333333,80.2747383 47.3333333,88.5915327 C47.3333333,96.9083271 51.7193721,101.302449 54.9242791,104.513262 C57.8022558,107.396542 59.0753023,108.809785 59.0753023,112.118196 C59.0753023,115.369262 61.7012016,118 64.9462868,118 C68.1913721,118 70.8172713,115.369262 70.8172713,112.118196 C70.8172713,103.801402 66.4312326,99.4072804 63.2263256,96.1964673 C60.3483488,93.3131869 59.0753023,91.8999439 59.0753023,88.5915327 C59.0753023,85.2831215 60.3483488,83.8698785 63.2263256,80.9865981 C66.4306822,77.775785 70.8161705,73.382215 70.8161705,65.0648692 Z" id="Shape"></path>
                </g>
            </g>
        </g>
    </g>
</svg>